<svg width="30" height="27" viewBox="0 0 30 27" fill="none" xmlns="http://www.w3.org/2000/svg">
<path d="M26.8425 10.5907L11.0578 5.85559C10.8647 5.40165 10.5319 5.01352 10.1044 4.72834C10.3837 4.37396 10.8994 3.93184 11.7853 3.82721C12.0131 3.79937 12.1875 3.63399 12.1875 3.42812V3.38593C12.1875 3.1404 11.9447 2.9573 11.6737 2.98937C10.4559 3.13196 9.67031 3.76984 9.24938 4.34527C8.99063 4.2744 8.72156 4.22546 8.4375 4.22546C7.81125 4.22546 7.2375 4.41615 6.77063 4.72834C5.56875 4.67687 4.38188 5.1249 3.65719 6.02602C2.5125 7.44943 1.875 9.17659 1.875 10.9755V21.9442C1.875 23.3423 3.13406 24.4755 4.6875 24.4755H25.3125C26.8659 24.4755 28.125 23.3423 28.125 21.9442V12.1913C28.125 11.4657 27.6084 10.8202 26.8425 10.5907ZM8.4375 5.06921C9.47156 5.06921 10.3125 5.82605 10.3125 6.75671C10.3125 7.68737 9.47156 8.44421 8.4375 8.44421C7.40344 8.44421 6.5625 7.68737 6.5625 6.75671C6.5625 5.82605 7.40344 5.06921 8.4375 5.06921ZM4.39688 6.55168C4.77281 6.07834 5.32125 5.77712 5.92312 5.6438C5.73844 5.9813 5.625 6.35509 5.625 6.75671C5.625 8.1548 6.88406 9.28796 8.4375 9.28796C9.97406 9.28796 11.2181 8.17759 11.2453 6.80059L25.1653 10.9755H2.8125C2.8125 9.37824 3.38156 7.82912 4.39688 6.55168ZM27.1875 21.9442C27.1875 22.8766 26.3484 23.6317 25.3125 23.6317H4.6875C3.65156 23.6317 2.8125 22.8766 2.8125 21.9442V19.413H27.1875V21.9442ZM27.1875 18.5692H2.8125V16.8817H27.1875V18.5692ZM27.1875 16.038H2.8125V11.8192H27.0797C27.1425 11.9331 27.1875 12.0563 27.1875 12.1905V16.038Z" fill="#C7A385"/>
</svg>
