<svg width="35" height="32" viewBox="0 0 35 32" fill="none" xmlns="http://www.w3.org/2000/svg">
<g clip-path="url(#clip0_116_20)">
<path d="M32.5487 14.7353C33.4748 9.47273 29.4856 4.37254 23.6383 3.34349C18.5344 2.44528 13.6291 4.95892 11.8974 9.23414C6.81064 9.22072 2.48542 12.4763 1.67701 17.0699C0.750878 22.3324 4.74015 27.4326 10.5874 28.4617C15.6909 29.3598 20.5967 26.8457 22.3285 22.5705C27.4148 22.5841 31.7404 19.3284 32.5487 14.7353ZM22.9788 19.3788C23.0315 15.1161 19.971 11.2034 15.4741 9.78389C16.8505 7.28478 19.929 5.88911 23.0923 6.44582C27.0292 7.13864 29.7252 10.5855 29.1017 14.1287C28.6007 16.9756 26.0775 19.0808 22.9788 19.3788ZM11.247 12.4262C11.1944 16.689 14.2549 20.6018 18.7517 22.0208C17.3752 24.5203 14.2968 25.916 11.1334 25.3593C7.19655 24.6665 4.5005 21.2196 5.12405 17.6764C5.62509 14.8294 8.1485 12.7239 11.247 12.4262ZM10.7434 27.5753C5.44006 26.642 1.8219 22.0162 2.66188 17.2432C3.37632 13.1836 7.12036 10.2753 11.5803 10.1415C11.5772 10.152 11.5745 10.1623 11.5715 10.1728C11.5552 10.2285 11.5395 10.284 11.5246 10.3392C11.52 10.3562 11.5156 10.373 11.5111 10.3899C11.497 10.4435 11.4834 10.497 11.4706 10.5503C11.4668 10.566 11.4629 10.5819 11.4592 10.5975C11.4455 10.6559 11.4325 10.7142 11.4203 10.7723C11.4183 10.7819 11.4161 10.7914 11.4141 10.801C11.3998 10.8703 11.3863 10.9395 11.3741 11.0088C11.36 11.0888 11.3474 11.1699 11.3358 11.2524C11.3354 11.2548 11.3351 11.2573 11.3348 11.2598C11.3241 11.336 11.3144 11.4136 11.3056 11.493C11.3049 11.499 11.304 11.5048 11.3034 11.5109C7.68729 11.7777 4.72014 14.2019 4.13917 17.5031C3.42948 21.5358 6.49659 25.4571 10.9774 26.2457C14.7902 26.9167 18.4922 25.0977 19.9033 21.9331C20.1317 21.4206 20.2953 20.8983 20.3895 20.363C20.4114 20.2387 20.4297 20.1135 20.4445 19.9876C20.448 19.958 20.4507 19.9285 20.4538 19.8989C20.4572 19.8659 20.4611 19.8331 20.4641 19.8C20.465 19.7898 20.4656 19.7795 20.4665 19.7693C20.471 19.7167 20.4753 19.664 20.4787 19.6112C20.6876 16.2297 18.3141 13.0633 14.7755 11.9234C14.7766 11.9146 14.7779 11.9057 14.779 11.8969C14.7909 11.803 14.8049 11.7091 14.8214 11.6154C14.8351 11.5375 14.8509 11.46 14.8679 11.3827C14.8714 11.3672 14.8749 11.3517 14.8785 11.3361C14.8948 11.2654 14.9122 11.1947 14.9312 11.1244C14.933 11.1177 14.9346 11.111 14.9365 11.1043C14.957 11.0295 14.9794 10.9551 15.0031 10.8809C15.0091 10.862 15.0154 10.843 15.0216 10.8241C15.0415 10.7638 15.0624 10.7036 15.0843 10.6436C15.0884 10.6324 15.0923 10.6212 15.0965 10.61C19.3871 11.9277 22.2597 15.7438 21.9618 19.8181C21.9504 19.9754 21.9366 20.1212 21.92 20.2599C21.9048 20.3853 21.8872 20.5056 21.8666 20.6229C21.7913 21.0506 21.6694 21.4835 21.4967 21.9583C21.4964 21.9591 21.4963 21.9599 21.496 21.9606C20.0272 26.0025 15.4784 28.4086 10.7434 27.5753ZM19.4899 18.9415C16.7301 17.9435 14.8367 15.5229 14.7358 12.8636C17.4955 13.8612 19.3891 16.282 19.4899 18.9415ZM22.6454 21.6632C22.6475 21.6563 22.6492 21.6496 22.6512 21.6427C22.6688 21.5827 22.6856 21.5229 22.7017 21.4635C22.7059 21.4481 22.7099 21.4328 22.714 21.4174C22.7284 21.3628 22.7421 21.3084 22.7553 21.2542C22.759 21.2387 22.7628 21.2232 22.7665 21.2078C22.7802 21.1493 22.7932 21.091 22.8054 21.0328C22.8074 21.0233 22.8096 21.0137 22.8116 21.0042C22.8259 20.9348 22.8394 20.8656 22.8516 20.7963C22.8657 20.7162 22.8784 20.6352 22.89 20.5527C22.8903 20.5502 22.8907 20.5477 22.891 20.5452C22.9016 20.4689 22.9114 20.3912 22.9202 20.3117C22.9208 20.3057 22.9217 20.3002 22.9223 20.2942C26.5386 20.027 29.5056 17.6032 30.0865 14.302C30.7962 10.2693 27.7291 6.34804 23.2483 5.55948C19.4356 4.88851 15.7336 6.70736 14.3225 9.8716C14.2776 9.97225 14.236 10.0735 14.1962 10.175C14.1347 10.3313 14.0786 10.4886 14.0293 10.6473C13.948 10.9093 13.8834 11.1742 13.8362 11.4423C13.7922 11.6924 13.7625 11.9435 13.747 12.1948C13.5382 15.5754 15.9115 18.7414 19.4501 19.8817C19.4474 19.904 19.4442 19.9262 19.4412 19.9485C19.4305 20.0289 19.4185 20.1094 19.4043 20.1898C19.3906 20.268 19.3747 20.3459 19.3575 20.4236C19.3544 20.4377 19.3511 20.4519 19.3479 20.466C19.3307 20.5414 19.3122 20.6167 19.2917 20.6916C19.2912 20.6932 19.2909 20.6948 19.2904 20.6964C19.269 20.7748 19.2454 20.8529 19.2205 20.9309C19.2165 20.9434 19.2123 20.9559 19.2082 20.9684C19.1853 21.0384 19.1612 21.1082 19.1355 21.1778C19.1334 21.1834 19.1315 21.1891 19.1294 21.1947C14.8389 19.8774 11.9661 16.0611 12.264 11.9867C12.2757 11.8269 12.2897 11.6787 12.3068 11.5376C12.3217 11.4149 12.3389 11.2971 12.3591 11.1823C12.4159 10.8596 12.4993 10.5339 12.6112 10.1882C12.6474 10.0764 12.6866 9.9627 12.7289 9.84629C14.1968 5.80311 18.7459 3.3964 23.4822 4.22992C28.7856 5.16324 32.4037 9.78898 31.5638 14.562C30.8495 18.6212 27.1051 21.5295 22.6454 21.6632Z" fill="#C7A385"/>
</g>
<defs>
<clipPath id="clip0_116_20">
<rect width="30" height="27" fill="white" transform="translate(4.67969 0.00708008) rotate(9.98101)"/>
</clipPath>
</defs>
</svg>
