<svg width="30" height="27" viewBox="0 0 30 27" fill="none" xmlns="http://www.w3.org/2000/svg">
<path d="M8.60207 4.00666C8.06966 4.00666 7.69775 3.87264 7.69775 3.68074C7.69775 3.59634 7.80727 3.52795 7.94243 3.52795C8.05879 3.52795 8.15617 3.57874 8.18103 3.6467C8.22928 3.66626 8.37276 3.70109 8.60216 3.70109C8.83147 3.70109 8.97504 3.66626 9.02329 3.6467C9.04806 3.57874 9.14553 3.52795 9.2619 3.52795C9.39706 3.52795 9.50657 3.59634 9.50657 3.68074C9.50638 3.87264 9.13447 4.00666 8.60207 4.00666Z" fill="#C7A385"/>
<path d="M7.5059 2.90338C7.44131 2.90338 7.3777 2.88688 7.33268 2.85815C7.28668 2.83004 7.26123 2.79093 7.26123 2.75059C7.26123 2.71026 7.28668 2.67053 7.33268 2.64242C7.42369 2.58558 7.58714 2.58558 7.67913 2.64242C7.72415 2.67114 7.75058 2.71026 7.75058 2.75059C7.75058 2.79032 7.72415 2.83004 7.67913 2.85815C7.63313 2.88688 7.5705 2.90338 7.5059 2.90338Z" fill="#C7A385"/>
<path d="M9.69829 2.90338C9.63369 2.90338 9.57106 2.88688 9.52506 2.85876C9.48004 2.83004 9.45361 2.79093 9.45361 2.75059C9.45361 2.71026 9.48004 2.67053 9.52506 2.64242C9.61705 2.58558 9.7805 2.58558 9.87151 2.64242C9.91653 2.67053 9.94296 2.71026 9.94296 2.75059C9.94296 2.79032 9.91653 2.83004 9.87151 2.85876C9.82552 2.88688 9.76288 2.90338 9.69829 2.90338Z" fill="#C7A385"/>
<path d="M8.60112 6.56103C8.5375 6.56103 8.47389 6.54514 8.42887 6.51642C8.38287 6.4883 8.35742 6.44858 8.35742 6.40824C8.35742 6.36852 8.38287 6.3288 8.42887 6.30068C8.51891 6.24385 8.68333 6.24385 8.77435 6.30068C8.82034 6.3288 8.84677 6.36852 8.84677 6.40824C8.84677 6.44858 8.82034 6.4883 8.77435 6.51642C8.72933 6.54514 8.66571 6.56103 8.60112 6.56103Z" fill="#C7A385"/>
<path d="M22.3305 4.89881C21.798 4.89881 21.4261 4.76479 21.4261 4.57289C21.4261 4.48849 21.5357 4.4201 21.6708 4.4201C21.7872 4.4201 21.8847 4.47083 21.9094 4.53885C21.9577 4.55841 22.1012 4.59324 22.3306 4.59324C22.5599 4.59324 22.7033 4.55841 22.7517 4.53885C22.7765 4.47089 22.8738 4.4201 22.9903 4.4201C23.1255 4.4201 23.235 4.48849 23.235 4.57289C23.2348 4.76479 22.8629 4.89881 22.3305 4.89881Z" fill="#C7A385"/>
<path d="M21.3084 3.99121C21.2438 3.99121 21.1802 3.97471 21.1352 3.94659C21.0892 3.91787 21.0637 3.87876 21.0637 3.83842C21.0637 3.79809 21.0892 3.75836 21.1352 3.73025C21.2262 3.67341 21.3896 3.67341 21.4806 3.73025C21.5266 3.75836 21.5531 3.79809 21.5531 3.83842C21.5531 3.87876 21.5266 3.91787 21.4816 3.94659C21.4356 3.97471 21.372 3.99121 21.3084 3.99121Z" fill="#C7A385"/>
<path d="M23.3529 3.99121C23.2884 3.99121 23.2247 3.97471 23.1797 3.94659C23.1337 3.91787 23.1083 3.87815 23.1083 3.83842C23.1083 3.79809 23.1337 3.75836 23.1797 3.73025C23.2707 3.67341 23.4342 3.67341 23.5252 3.73025C23.5712 3.75836 23.5976 3.79809 23.5976 3.83842C23.5976 3.87876 23.5712 3.91787 23.5252 3.94659C23.4802 3.97471 23.4166 3.99121 23.3529 3.99121Z" fill="#C7A385"/>
<path d="M29.9735 14.5799L27.5969 7.87985C27.5866 7.85156 27.4438 7.47705 27.0054 7.09503C27.8508 6.93368 28.2415 6.33238 28.2415 5.76726C28.2415 4.90146 27.5346 4.57212 27.1968 4.46419C27.15 3.18892 26.2167 2.88794 25.7644 2.81692C25.7237 2.32092 25.4487 1.91708 24.9455 1.61536C23.9692 1.02995 22.4828 1.04199 22.3309 1.04461C22.1873 1.04186 20.6948 1.02799 19.7154 1.61536C19.212 1.91714 18.9371 2.32092 18.8965 2.81692C18.4441 2.88794 17.5109 3.18892 17.4641 4.46419C17.1261 4.57212 16.4193 4.90146 16.4193 5.76726C16.4193 6.33244 16.811 6.93307 17.6565 7.09435C17.2173 7.47674 17.0742 7.85192 17.0638 7.88059L16.1309 10.5106L14.8683 6.08958C14.8654 6.07699 14.5457 4.83002 12.2756 4.83002H10.3292V4.29007C10.9029 3.87878 11.2678 3.26745 11.2678 2.58548V1.39119C11.2676 0.627816 10.2729 0.00671387 9.05046 0.00671387H8.15378C6.93119 0.00671387 5.93665 0.627816 5.93665 1.39119V2.58548C5.93665 3.26739 6.3015 3.87872 6.87511 4.29001V4.83002H4.92879C2.65871 4.83002 2.33907 6.07699 2.33731 6.08493L0.00381142 14.2555C-0.00891159 14.3001 0.010565 14.3458 0.0570529 14.3804C0.103541 14.4151 0.172245 14.4351 0.24457 14.4351H0.347528L0.281858 14.7459C0.242123 14.9369 0.323844 15.1261 0.511949 15.2788C0.700151 15.4315 0.972326 15.5292 1.27817 15.5539C1.32886 15.558 1.37936 15.5601 1.42957 15.5601C1.68276 15.5601 1.92763 15.5084 2.13159 15.4103C2.37313 15.2941 2.52884 15.1268 2.57083 14.9385L2.74493 14.4351H2.84368C2.96201 14.4351 3.0633 14.3823 3.08444 14.3097L4.20084 10.4732V14.6347C4.20084 14.7191 4.31035 14.7875 4.44551 14.7875H4.69087V25.7553C4.56305 25.7985 4.44757 25.8535 4.34559 25.921C3.80828 26.2765 3.8537 26.839 3.85595 26.8628C3.86338 26.9436 3.97055 27.0068 4.10023 27.0068H7.77033C7.90548 27.0068 8.015 26.9384 8.015 26.854V25.7988L8.60221 18.7395L9.18943 25.7988V26.854C9.18943 26.9384 9.29895 27.0068 9.4341 27.0068H13.1042C13.2339 27.0068 13.3409 26.9436 13.3485 26.8628C13.3507 26.839 13.3961 26.2765 12.8588 25.921C12.7569 25.8535 12.6413 25.7985 12.5136 25.7553V14.7875H12.7588C12.894 14.7875 13.0035 14.7191 13.0035 14.6347V10.4731L14.12 14.3097C14.1411 14.3823 14.2424 14.4351 14.3607 14.4351H14.4594L14.6335 14.9386C14.7139 15.2981 15.209 15.5601 15.7763 15.5601C15.8257 15.5601 15.8759 15.558 15.9262 15.5539C16.2321 15.5291 16.5042 15.4314 16.6924 15.2788C16.8805 15.1261 16.9622 14.9369 16.9225 14.7456L16.8569 14.4351H16.9618C17.097 14.4351 17.2065 14.3667 17.2065 14.2823C17.2065 14.2663 17.2026 14.2509 17.1953 14.2365L17.1544 14.0933L19.2415 9.81277C19.3298 9.84925 19.4234 9.87657 19.5213 9.89344L20.0736 11.0923C17.0293 12.7056 16.4438 18.851 16.42 19.1155C16.4163 19.1575 16.4404 19.1985 16.4866 19.229C16.5328 19.2595 16.5971 19.2768 16.6643 19.2768H19.41C19.4313 19.8886 19.5765 22.2948 20.5669 25.6557C20.5357 25.7731 20.3338 26.3792 19.4346 26.7235C19.3411 26.7593 19.2973 26.8294 19.3269 26.8953C19.3567 26.9611 19.4529 27.0066 19.5624 27.0066H25.099C25.2085 27.0066 25.3047 26.9611 25.3344 26.8953C25.3642 26.8294 25.3202 26.7593 25.2268 26.7235C24.3277 26.3793 24.1257 25.7732 24.0944 25.6557C25.0849 22.2947 25.2302 19.8885 25.2513 19.2768H27.9971C28.0644 19.2768 28.1286 19.2595 28.1748 19.229C28.221 19.1985 28.2451 19.1574 28.2414 19.1154C28.2176 18.851 27.632 12.7055 24.5878 11.0922L25.1401 9.89338C25.2379 9.87651 25.3317 9.84913 25.4199 9.81271L27.8899 14.8789C27.9544 15.0504 28.121 15.1964 28.3597 15.2905C28.5327 15.3588 28.7287 15.3939 28.9286 15.3939C29.0076 15.3939 29.0871 15.3884 29.166 15.3773C29.4446 15.3381 29.682 15.2334 29.8345 15.0826C29.9867 14.932 30.0362 14.7532 29.9735 14.5799ZM22.5751 1.35373C23.0124 1.36974 23.9649 1.44998 24.6087 1.83708C25.0544 2.10506 25.2803 2.47878 25.2803 2.94795C25.2803 3.03076 25.3893 3.09853 25.5219 3.10073C25.5704 3.10153 26.7092 3.13661 26.7092 4.56527C26.7092 4.63317 26.7809 4.69288 26.8853 4.71188C26.8939 4.71347 27.7522 4.88031 27.7522 5.76732C27.7522 5.80949 27.7391 6.77204 26.6453 6.8293C26.2892 6.6066 25.8107 6.4103 25.1711 6.31643L23.5731 6.07699V5.30799C24.1634 4.97504 24.5523 4.41206 24.5523 3.77482V3.35381H24.551C24.551 3.34855 24.5518 3.34342 24.551 3.3381C24.5371 3.25419 24.4177 3.19326 24.2824 3.20182C24.2747 3.20224 23.489 3.2493 22.99 2.96818C22.7146 2.81307 22.575 2.5801 22.575 2.27563V1.35373H22.5751ZM23.2714 6.34601L23.8289 6.42955C23.6054 6.81885 23.0096 7.08922 22.3304 7.08922C21.6526 7.08922 21.0546 6.81879 20.8308 6.42974L21.3894 6.34601C21.4994 6.32951 21.577 6.26809 21.577 6.19744V5.51553C21.8124 5.58643 22.0661 5.62523 22.3304 5.62523C22.5948 5.62523 22.8484 5.58643 23.0838 5.51553V6.19738C23.0837 6.26809 23.1613 6.32951 23.2714 6.34601ZM22.3304 2.93279C22.418 3.03131 22.5278 3.11931 22.6623 3.19503C23.117 3.45116 23.7194 3.50286 24.063 3.50953V3.77476C24.063 4.62657 23.2858 5.3196 22.3304 5.3196C21.3751 5.3196 20.5979 4.62657 20.5979 3.77476V3.50953C20.9416 3.50286 21.5439 3.4511 21.9986 3.19503C22.1329 3.11931 22.2427 3.03137 22.3304 2.93279ZM16.9086 5.76726C16.9086 4.89254 17.7424 4.71836 17.7755 4.71182C17.8798 4.69282 17.9516 4.63305 17.9516 4.56521C17.9516 3.13655 19.0905 3.10147 19.1359 3.10067C19.271 3.10067 19.3806 3.03229 19.3806 2.94789C19.3806 2.47872 19.6065 2.105 20.0521 1.83702C20.696 1.44986 21.6485 1.3695 22.0858 1.35355V2.27563C22.0858 2.57931 21.9469 2.81185 21.6729 2.96696C21.1784 3.24686 20.3877 3.20231 20.3777 3.20176C20.2438 3.19302 20.1237 3.25425 20.1098 3.33804C20.1089 3.34336 20.1098 3.34849 20.1098 3.35375H20.1085V3.77476C20.1085 4.412 20.4973 4.97498 21.0877 5.30793V6.07687L19.4909 6.31619C18.8509 6.41012 18.372 6.60648 18.0159 6.82924C16.9217 6.77222 16.9086 5.80949 16.9086 5.76726ZM6.4259 1.39119C6.4259 0.796307 7.20102 0.312284 8.15368 0.312284H9.05036C10.003 0.312284 10.7781 0.796246 10.7781 1.39119V1.68552C9.85504 1.57068 9.6178 0.823442 9.60753 0.789279C9.58463 0.711603 9.47022 0.658067 9.34465 0.664851C9.21869 0.672062 9.12229 0.738004 9.12229 0.817025C9.12229 0.989 9.02462 1.13237 8.82389 1.25533C8.23041 1.6186 6.95654 1.68625 6.4259 1.69829V1.39119ZM6.4259 2.58542V2.00435C7.00577 1.99268 8.43975 1.91793 9.16584 1.47388C9.25079 1.42193 9.32361 1.36675 9.38439 1.30838C9.6412 1.6222 10.0881 1.93346 10.7782 1.99414V2.58542C10.7782 3.65229 9.80199 4.52029 8.60212 4.52047C7.40214 4.52029 6.4259 3.65229 6.4259 2.58542ZM8.60212 5.46542L9.79054 5.82923L8.60212 8.38624L7.41359 5.82923L8.60212 5.46542ZM7.36436 5.50398V4.56882C7.6661 4.70235 8.00169 4.78876 8.35735 4.81614V5.20006L7.36436 5.50398ZM8.84679 5.20006V4.81614C9.20245 4.78876 9.53804 4.70241 9.83967 4.56894V5.50398L8.84679 5.20006ZM2.09048 14.8799C2.08901 14.8841 2.08794 14.8883 2.08706 14.8925C2.06416 15.0026 1.97392 15.1005 1.83309 15.1683C1.69225 15.236 1.51765 15.2652 1.34129 15.2511C1.16503 15.2368 1.00824 15.1805 0.899805 15.0925C0.791366 15.0045 0.744291 14.8954 0.767094 14.7857L0.841181 14.4352H2.24433L2.09048 14.8799ZM2.63953 14.1296H0.536807L2.8202 6.13395C2.8247 6.11488 2.88107 5.89548 3.12888 5.66722L4.19604 8.78018L2.63953 14.1296ZM4.69018 14.4819V12.8799L6.23808 12.5487C6.3659 12.5213 6.43402 12.4345 6.39027 12.3547C6.34643 12.2749 6.20735 12.2323 6.07954 12.2597L4.69018 12.5568V8.77774C4.69018 8.77762 4.69009 8.77743 4.69009 8.77731C4.69009 8.77401 4.68715 8.75372 4.685 8.74718C4.6848 8.74669 4.6849 8.74621 4.6847 8.74578L3.5367 5.39685C3.84929 5.24773 4.29499 5.13559 4.92879 5.13559H6.5817L8.35744 8.95619V14.482L4.69018 14.4819ZM7.52555 26.7011H4.35244C4.37456 26.5453 4.4504 26.2968 4.70134 26.1308C4.88759 26.0075 5.13911 25.9476 5.4702 25.9476H7.52546L7.52555 26.7011ZM8.8464 15.7862H8.84513C8.83876 15.709 8.74099 15.6456 8.61474 15.6415C8.4788 15.6367 8.36469 15.702 8.35764 15.7862L7.53779 25.642H5.18012V14.7875H12.0239V25.642H9.66625L8.8464 15.7862ZM12.8524 26.7011H9.67868V25.9476H11.7339C12.0641 25.9476 12.3152 26.0072 12.5013 26.1297C12.7552 26.2969 12.8308 26.5454 12.8524 26.7011ZM12.5192 8.74578C12.5191 8.74627 12.5191 8.74675 12.519 8.74718C12.517 8.7536 12.514 8.77389 12.514 8.77731C12.514 8.77743 12.5139 8.77762 12.5139 8.77774V12.5568L11.1247 12.2597C10.9969 12.2323 10.8577 12.2749 10.8139 12.3547C10.7701 12.4346 10.8382 12.5214 10.9661 12.5488L12.5139 12.88V14.482H8.84669V8.95619L10.6223 5.13559H12.2753C12.908 5.13559 13.3537 5.24883 13.6666 5.39923L12.5192 8.74578ZM16.3043 15.0924C16.1959 15.1804 16.0391 15.2367 15.8628 15.251C15.4995 15.2805 15.1645 15.1198 15.1171 14.8924C15.1162 14.8882 15.1151 14.8841 15.1137 14.8799L14.9598 14.4351H16.363L16.4369 14.7853C16.4598 14.8954 16.4128 15.0045 16.3043 15.0924ZM14.5646 14.1296L13.0079 8.78024L14.074 5.67095C14.3209 5.89884 14.3799 6.11769 14.3852 6.13859L16.6673 14.1296H14.5646ZM22.0858 26.7011H20.2527C20.7502 26.3767 20.945 26.0024 21.0175 25.8059H22.0858V26.7011ZM21.0184 25.5004C20.0621 22.2179 19.9201 19.8771 19.8991 19.277H22.0857V25.5004H21.0184ZM24.4081 26.7011H22.5751V25.8059H23.6433C23.7158 26.0024 23.9105 26.3768 24.4081 26.7011ZM23.6424 25.5004H22.5751V19.2769H24.7617C24.7408 19.8767 24.5992 22.2159 23.6424 25.5004ZM25.5355 9.20523C25.4042 9.4426 25.172 9.59679 24.9294 9.60767C24.827 9.61225 24.7401 9.65625 24.7117 9.71786L24.0725 11.1055C24.0446 11.166 24.0791 11.231 24.1594 11.2692C26.8728 12.5605 27.6191 17.9648 27.7354 18.9714H16.9255C17.0417 17.9649 17.7872 12.5609 20.5015 11.2692C20.5817 11.231 20.6162 11.166 20.5884 11.1055L19.9492 9.71786C19.9208 9.65625 19.8339 9.61225 19.7315 9.60767C19.4889 9.59685 19.2566 9.4426 19.1254 9.20523C18.9617 8.90913 18.9838 8.50328 19.3344 8.28406C19.6033 8.2194 21.1382 7.89648 22.1407 8.66517C22.226 8.73062 22.3801 8.74046 22.4849 8.68717C22.4981 8.68045 22.5098 8.67299 22.5202 8.66511C23.5232 7.89617 25.0587 8.21971 25.3264 8.28412C25.6771 8.50328 25.6991 8.90913 25.5355 9.20523ZM29.4206 14.9196C29.3379 15.0013 29.2091 15.0581 29.0581 15.0795C28.7463 15.1232 28.4353 15.0007 28.365 14.806C28.3637 14.8024 28.3621 14.7988 28.3604 14.7952L25.8067 9.55749C25.8815 9.48312 25.9461 9.39866 25.998 9.30503C26.2117 8.91836 26.1864 8.35758 25.6254 8.04009C25.6053 8.02879 25.5824 8.01956 25.5576 8.0129C25.5377 8.00764 23.6454 7.51549 22.3303 8.34187C21.0153 7.51555 19.123 8.00764 19.1031 8.0129C19.0782 8.01956 19.0553 8.02879 19.0353 8.04009C18.4744 8.35758 18.4489 8.91842 18.6627 9.30503C18.7145 9.39866 18.7792 9.48312 18.8539 9.55749L16.9649 13.4319L16.3541 11.2934L17.541 7.94744C17.5449 7.93657 17.9553 6.85552 19.6038 6.61357L20.3545 6.50106C20.6324 7.02646 21.4264 7.39473 22.3302 7.39473C23.2359 7.39473 24.0294 7.02694 24.3072 6.50118L25.0578 6.61363C26.6975 6.8543 27.103 7.90308 27.1192 7.94659L29.4958 14.6466C29.53 14.7409 29.5033 14.8379 29.4206 14.9196Z" fill="#C7A385"/>
</svg>
