<svg width="30" height="27" viewBox="0 0 30 27" fill="none" xmlns="http://www.w3.org/2000/svg">
<path d="M28.125 20.2571H27.1875V17.7258C27.1875 11.8103 21.9806 7.00177 15.4688 6.77817V6.69717C16.2759 6.50902 16.875 5.85511 16.875 5.06958C16.875 4.13724 16.0359 3.38208 15 3.38208C13.9641 3.38208 13.125 4.13724 13.125 5.06958C13.125 5.85511 13.7241 6.50902 14.5312 6.69717V6.77817C8.01937 7.00177 2.8125 11.8103 2.8125 17.7258V20.2571H1.875C1.3575 20.2571 0.9375 20.6351 0.9375 21.1008C0.9375 22.4989 2.19656 23.6321 3.75 23.6321H26.25C27.8034 23.6321 29.0625 22.4989 29.0625 21.1008C29.0625 20.6351 28.6425 20.2571 28.125 20.2571ZM14.0625 5.06958C14.0625 4.60467 14.4834 4.22583 15 4.22583C15.5166 4.22583 15.9375 4.60467 15.9375 5.06958C15.9375 5.53449 15.5166 5.91333 15 5.91333C14.4834 5.91333 14.0625 5.53449 14.0625 5.06958ZM3.75 17.7258C3.75 12.1427 8.79656 7.60083 15 7.60083C21.2034 7.60083 26.25 12.1427 26.25 17.7258V20.2571H3.75V17.7258ZM26.25 22.7883H3.75C2.71594 22.7883 1.875 22.0315 1.875 21.1008H28.125C28.125 22.0315 27.2841 22.7883 26.25 22.7883ZM9.375 10.9758C8.33906 10.9758 7.5 11.731 7.5 12.6633C7.5 13.5957 8.33906 14.3508 9.375 14.3508C10.4109 14.3508 11.25 13.5957 11.25 12.6633C11.25 11.731 10.4109 10.9758 9.375 10.9758ZM9.375 13.5071C8.85844 13.5071 8.4375 13.1282 8.4375 12.6633C8.4375 12.1984 8.85844 11.8196 9.375 11.8196C9.89156 11.8196 10.3125 12.1984 10.3125 12.6633C10.3125 13.1282 9.89156 13.5071 9.375 13.5071Z" fill="#C7A385"/>
</svg>
