<svg width="125" height="120" viewBox="0 0 125 120" fill="none" xmlns="http://www.w3.org/2000/svg">
<path d="M123 60C123 91.9564 95.991 118 62.5 118C29.009 118 2 91.9564 2 60C2 28.0436 29.009 2 62.5 2C95.991 2 123 28.0436 123 60Z" fill="#1D3539" stroke="#C7A385" stroke-width="4"/>
<path d="M65.1363 70.288C64.3683 70.288 63.8563 70.096 63.6003 69.712C62.8323 68.6027 62.4483 67.2587 62.4483 65.68C62.4483 62.0107 64.4109 56.7413 68.3363 49.872C70.8536 45.5627 74.7363 39.76 79.9843 32.464C77.7656 34.2987 75.3549 36.4107 72.7523 38.8C70.1496 41.1893 67.3549 43.8347 64.3683 46.736C60.4856 50.5333 57.3069 53.8827 54.8323 56.784C52.4003 59.6427 50.6509 62.0107 49.5843 63.888C48.4749 65.8933 47.1309 66.896 45.5523 66.896C44.8269 66.896 44.4643 66.64 44.4643 66.128C44.4643 65.9573 44.5283 65.7867 44.6562 65.616C45.3816 64.464 46.3203 62.9493 47.4723 61.072C48.6243 59.152 49.9896 56.8693 51.5683 54.224C56.1763 46.2027 59.4829 39.824 61.4883 35.088C62.2136 33.296 62.5763 31.9947 62.5763 31.184C62.5763 30.5013 62.3416 30.16 61.8723 30.16C61.2323 30.16 60.2296 30.736 58.8643 31.888C54.1283 35.856 48.8163 41.3813 42.9283 48.464C40.4536 51.408 38.2776 54.1387 36.4003 56.656C34.5656 59.1307 33.0083 61.3707 31.7283 63.376C30.7043 64.9547 30.1923 66.0853 30.1923 66.768C30.1923 67.024 30.2776 67.1947 30.4483 67.28C30.6616 67.408 30.7683 67.472 30.7683 67.472C30.7683 67.5147 30.3843 67.8347 29.6163 68.432C28.9336 68.7733 28.1656 68.944 27.3123 68.944C25.5629 68.944 24.8163 68.5387 25.0723 67.728C25.6696 65.808 27.6536 62.3307 31.0243 57.296C35.4189 50.768 38.2776 46.3093 39.6003 43.92C42.4589 38.7573 43.8883 34.64 43.8883 31.568C43.8883 29.4347 43.3336 27.92 42.2243 27.024C41.1149 26.128 39.4296 25.68 37.1683 25.68C32.1763 25.68 27.0136 27.8347 21.6803 32.144C19.3763 34.0213 17.2216 36.1547 15.2163 38.544C13.2109 40.8907 11.5896 43.344 10.3523 45.904C9.11492 48.464 8.49625 50.9813 8.49625 53.456C8.49625 57.8933 10.5869 60.112 14.7683 60.112C19.6749 60.112 23.4723 58.3413 26.1603 54.8C27.1843 53.392 27.6963 52.0693 27.6963 50.832C27.6963 50.1067 27.4829 49.616 27.0563 49.36C27.0136 49.3173 26.9923 49.2533 26.9923 49.168C26.9923 48.9973 27.1203 48.912 27.3763 48.912C28.4856 48.912 29.0403 49.6373 29.0403 51.088C29.0403 51.984 28.6563 53.1147 27.8883 54.48C26.9069 56.1867 25.4349 57.6373 23.4722 58.832C20.9976 60.368 18.2669 61.136 15.2803 61.136C12.3789 61.136 10.0536 60.2187 8.30425 58.384C6.55492 56.5493 5.68025 54.1387 5.68025 51.152C5.68025 44.4107 10.0749 37.52 18.8643 30.48C20.4856 29.2 22.4056 28.112 24.6243 27.216C26.8856 26.2773 29.2109 25.5733 31.6003 25.104C33.9896 24.592 36.1869 24.336 38.1923 24.336C41.0936 24.336 43.2909 24.8267 44.7843 25.808C46.3203 26.7467 47.0883 28.4107 47.0883 30.8C47.0883 33.7867 45.8723 37.8187 43.4403 42.896C42.6723 44.4747 40.9443 47.3547 38.2563 51.536L43.1843 45.264C44.4216 43.6427 46.0856 41.7227 48.1763 39.504C50.2669 37.2853 52.7416 34.768 55.6003 31.952C56.8376 30.7573 58.2456 29.7333 59.8243 28.88C61.4029 28.0267 62.7469 27.6 63.8563 27.6C65.3923 27.6 66.1603 28.4107 66.1603 30.032C66.1603 31.44 65.5843 33.36 64.4323 35.792C62.8963 39.0347 60.9763 42.8107 58.6723 47.12C57.9469 48.4427 57.4563 49.5733 57.2003 50.512C56.9443 51.4507 56.7736 51.984 56.6883 52.112C56.8589 51.8987 57.2643 51.408 57.9043 50.64C58.5869 49.8293 59.5256 48.7413 60.7203 47.376C62.1709 45.7547 63.8989 43.984 65.9043 42.064C67.9096 40.1013 70.2136 38.0107 72.8163 35.792L83.0563 27.344C83.8669 26.6613 84.5923 26.32 85.2323 26.32C85.8296 26.32 86.2563 26.6827 86.5123 27.408C86.8109 28.0907 87.1096 28.9867 87.4083 30.096C87.6216 30.8213 86.5976 32.336 84.3363 34.64C79.0029 40.1013 74.3949 46.2027 70.5123 52.944C66.9709 59.1733 65.2003 63.6747 65.2003 66.448C65.2003 67.6853 65.6056 68.304 66.4163 68.304C66.9283 68.304 68.2083 67.856 70.2563 66.96C72.0483 66.1493 73.2216 65.68 73.7763 65.552C73.9896 65.6373 74.0963 65.744 74.0963 65.872C74.0963 66.512 72.9656 67.408 70.7043 68.56C68.4856 69.712 66.6296 70.288 65.1363 70.288Z" fill="#C7A385"/>
<path d="M89.8175 104.976C87.4282 104.976 84.9748 104.613 82.4575 103.888C79.9402 103.205 77.5508 102.181 75.2895 100.816C73.0708 99.4507 71.1508 97.8293 69.5295 95.952C66.1162 99.3653 62.8735 101.072 59.8015 101.072C58.2228 101.072 57.0495 100.603 56.2815 99.664C55.5135 98.768 55.1295 97.5947 55.1295 96.144C55.1295 93.456 56.1535 90.2987 58.2015 86.672C60.1215 83.2587 61.6575 81.4667 62.8095 81.296C63.6628 81.296 64.5375 82.1707 65.4335 83.92L69.4655 91.728C71.7268 88.6987 74.0948 85.4347 76.5695 81.936C73.0708 80.3573 71.3215 78.0747 71.3215 75.088C71.3215 73.808 71.6202 72.6347 72.2175 71.568C72.8575 70.4587 73.6682 69.5627 74.6495 68.88C75.6308 68.1973 76.6335 67.856 77.6575 67.856C79.0655 67.856 80.0895 68.5173 80.7295 69.84C80.8148 69.968 80.8148 70.096 80.7295 70.224C80.6868 70.352 80.6228 70.3947 80.5375 70.352C80.2388 70.0107 79.8122 69.712 79.2575 69.456C78.7028 69.2 78.1908 69.072 77.7215 69.072C76.8255 69.072 75.9935 69.4347 75.2255 70.16C74.5002 70.8427 73.9242 71.6533 73.4975 72.592C73.1135 73.5307 72.9642 74.3627 73.0495 75.088C73.0495 77.264 74.5855 79.1627 77.6575 80.784C78.3828 79.7173 79.1722 78.5653 80.0255 77.328C80.8788 76.048 81.7962 74.6827 82.7775 73.232C91.2682 60.7733 98.3295 54.544 103.962 54.544C107.93 54.544 109.914 56.4 109.914 60.112C109.914 63.4827 108.271 67.4507 104.986 72.016C103.364 74.2773 101.316 76.304 98.8415 78.096C96.3668 79.888 93.7428 81.3173 90.9695 82.384C88.2388 83.408 85.5935 83.92 83.0335 83.92C82.4362 83.92 81.8388 83.8987 81.2415 83.856C80.6868 83.7707 80.1748 83.6427 79.7055 83.472C78.5962 84.9227 77.3162 86.544 75.8655 88.336C74.4148 90.128 72.8148 92.112 71.0655 94.288C71.8335 95.3547 72.9215 96.4213 74.3295 97.488C75.7802 98.5547 77.4015 99.4933 79.1935 100.304C80.9855 101.157 82.7562 101.84 84.5055 102.352C86.2548 102.864 87.8335 103.12 89.2415 103.12C90.8628 103.12 92.3562 102.928 93.7215 102.544C95.0868 102.203 96.1962 101.627 97.0495 100.816C97.9028 100.048 98.3295 99.024 98.3295 97.744C98.3295 97.5733 98.3295 97.4027 98.3295 97.232C98.3295 97.0613 98.3082 96.8907 98.2655 96.72C98.2655 96.6347 98.2442 96.5707 98.2015 96.528C98.2015 96.4853 98.2015 96.4427 98.2015 96.4C98.2015 95.9733 98.3295 95.76 98.5855 95.76C99.0122 95.76 99.3535 96.1013 99.6095 96.784C99.8655 97.424 99.9935 97.936 99.9935 98.32C99.9935 99.6427 99.4815 100.795 98.4575 101.776C97.4335 102.8 96.1322 103.589 94.5535 104.144C93.0175 104.699 91.4388 104.976 89.8175 104.976ZM82.5855 82.256C84.7615 82.256 87.0868 81.7653 89.5615 80.784C92.0362 79.76 94.3615 78.4373 96.5375 76.816C98.7562 75.152 100.548 73.36 101.914 71.44C105.796 66.0213 107.738 61.904 107.738 59.088C107.738 57.8933 107.396 57.0187 106.714 56.464C106.031 55.9093 105.199 55.632 104.218 55.632C102.084 55.632 99.4388 57.424 96.2815 61.008C95.3002 62.16 93.9988 63.824 92.3775 66C90.7988 68.1333 88.9215 70.7787 86.7455 73.936C85.8922 75.1733 84.9535 76.4747 83.9295 77.84C82.9055 79.2053 81.8388 80.6133 80.7295 82.064C81.3268 82.192 81.9455 82.256 82.5855 82.256ZM59.9295 99.344C60.7402 99.344 61.6362 99.0453 62.6175 98.448C63.6415 97.8933 64.6228 97.1893 65.5615 96.336C66.5002 95.4827 67.2682 94.6507 67.8655 93.84C67.2682 92.9867 66.6282 91.9627 65.9455 90.768C65.2628 89.5733 64.5162 88.1867 63.7055 86.608C62.7242 84.56 61.9775 83.6427 61.4655 83.856C60.6975 83.984 59.8655 85.3493 58.9695 87.952C58.0735 90.5547 57.6255 92.9867 57.6255 95.248C57.6255 97.9787 58.3935 99.344 59.9295 99.344Z" fill="#C7A385"/>
</svg>
