<svg width="30" height="27" viewBox="0 0 30 27" fill="none" xmlns="http://www.w3.org/2000/svg">
<path fill-rule="evenodd" clip-rule="evenodd" d="M8.68107 12C8.37585 12.0051 8.07877 12.0831 7.85343 12.2859C7.76375 12.3667 7.69786 12.4585 7.64835 12.5562C7.64677 12.5581 7.6452 12.56 7.64366 12.562L1.90696 24.2187C1.86859 24.2966 1.8573 24.3831 1.87458 24.4668C1.89185 24.5506 1.93689 24.6277 2.00377 24.6879C2.07064 24.7482 2.15622 24.7889 2.24924 24.8045C2.34227 24.8202 2.43839 24.8102 2.52496 24.7758L15.4412 19.6259C15.4461 19.6235 15.451 19.621 15.4558 19.6185C15.5747 19.5731 15.6865 19.5106 15.7836 19.4232C16.084 19.1528 16.1385 18.7676 16.0821 18.404C16.0257 18.0403 15.8648 17.6536 15.6252 17.2356C15.146 16.3995 14.3419 15.4411 13.3098 14.5123C12.2778 13.5835 11.2139 12.8606 10.2849 12.4293C9.82045 12.2137 9.39076 12.0681 8.98672 12.0173C8.88571 12.0046 8.7828 11.9984 8.68107 12ZM8.70488 12.8421C8.7466 12.8422 8.79652 12.8452 8.85686 12.8528C9.09824 12.8832 9.45171 12.992 9.85479 13.1791C10.6609 13.5534 11.6723 14.2316 12.6471 15.1089C13.6219 15.9862 14.3763 16.8973 14.7922 17.6228C15.0002 17.9856 15.1202 18.3029 15.1538 18.5201C15.1875 18.7374 15.1409 18.8087 15.1209 18.8267C15.1009 18.8446 15.0217 18.8874 14.7803 18.8571C14.5389 18.8268 14.1855 18.7188 13.7824 18.5317C12.9763 18.1574 11.9639 17.4784 10.9891 16.6011C10.0143 15.7238 9.26084 14.8135 8.84496 14.088C8.63702 13.7252 8.51701 13.4071 8.48333 13.1898C8.45886 13.032 8.47682 12.9524 8.49613 12.913L8.50081 12.9048V12.9039C8.50638 12.8945 8.51215 12.8863 8.51637 12.8825C8.53137 12.869 8.57967 12.842 8.70488 12.8421ZM7.86443 14.1976C7.91023 14.2885 7.95879 14.3803 8.01274 14.4744C8.49199 15.3105 9.29427 16.2688 10.3263 17.1977C11.3583 18.1265 12.424 18.8493 13.353 19.2807C13.457 19.3289 13.5583 19.3723 13.6588 19.4133L10.0452 20.8536C9.27843 20.4483 8.39897 19.8237 7.58611 19.0928C7.0575 18.6165 6.57591 18.1122 6.17803 17.6237L7.86443 14.1976ZM5.7459 18.5028C6.10089 18.9044 6.49746 19.3048 6.92327 19.6885C7.6022 20.2991 8.31945 20.8404 9.01433 21.2648L3.25566 23.5612L5.7459 18.5028Z" fill="#C7A385"/>
<path fill-rule="evenodd" clip-rule="evenodd" d="M25.1386 11.036C22.5824 10.8366 20.4544 11.6555 18.9011 12.6518C16.83 13.9802 15.7031 15.6338 15.7031 15.6338C15.6708 15.681 15.6491 15.7335 15.6394 15.7882C15.6296 15.843 15.6319 15.899 15.6462 15.9529C15.6605 16.0069 15.6864 16.0578 15.7226 16.1027C15.7588 16.1476 15.8044 16.1856 15.8569 16.2147C15.9628 16.2732 16.0902 16.2915 16.211 16.2655C16.3319 16.2396 16.4364 16.1715 16.5015 16.0762C16.5015 16.0762 17.5418 14.5597 19.4449 13.339C21.348 12.1183 24.0364 11.2037 27.497 12.3939C27.613 12.4338 27.742 12.4307 27.8554 12.3851C27.9689 12.3395 28.0577 12.2553 28.1021 12.1508C28.1465 12.0464 28.143 11.9303 28.0924 11.8282C28.0417 11.726 27.9481 11.6462 27.832 11.6062C26.8902 11.2822 25.9906 11.1024 25.1386 11.036Z" fill="#C7A385"/>
<path fill-rule="evenodd" clip-rule="evenodd" d="M20.8063 3.40518C20.6826 3.39487 20.5594 3.42917 20.4638 3.50054C20.3681 3.57192 20.3079 3.67454 20.2963 3.78586C20.2963 3.78586 20.1078 5.55988 19.0008 7.41217C17.8938 9.26446 15.932 11.1554 12.2433 11.4653C12.1196 11.4757 12.0056 11.5299 11.9263 11.616C11.847 11.7021 11.8089 11.8129 11.8204 11.9243C11.832 12.0356 11.8922 12.1382 11.9878 12.2096C12.0834 12.2809 12.2066 12.3152 12.3303 12.3049C16.3458 11.9675 18.6219 9.82763 19.8266 7.8118C21.0314 5.79597 21.2292 3.86414 21.2292 3.86414C21.2407 3.75281 21.2026 3.64194 21.1233 3.55588C21.044 3.46983 20.9299 3.41562 20.8063 3.40518Z" fill="#C7A385"/>
<path fill-rule="evenodd" clip-rule="evenodd" d="M10.4124 6.58984C9.64126 6.58984 9.0061 7.16148 9.0061 7.85547C9.0061 8.54946 9.64126 9.12109 10.4124 9.12109C11.1835 9.12109 11.8186 8.54946 11.8186 7.85547C11.8186 7.16148 11.1835 6.58984 10.4124 6.58984ZM10.4124 7.43359C10.6768 7.43359 10.8811 7.61748 10.8811 7.85547C10.8811 8.09346 10.6768 8.27734 10.4124 8.27734C10.1479 8.27734 9.9436 8.09346 9.9436 7.85547C9.9436 7.61748 10.1479 7.43359 10.4124 7.43359Z" fill="#C7A385"/>
<path fill-rule="evenodd" clip-rule="evenodd" d="M25.9818 3.27747C25.0511 3.27747 24.2863 3.96581 24.2863 4.80347C24.2863 5.64112 25.0511 6.32947 25.9818 6.32947C26.9125 6.32947 27.6774 5.64112 27.6774 4.80347C27.6774 3.96581 26.9125 3.27747 25.9818 3.27747ZM25.9818 4.12122C26.4059 4.12122 26.7399 4.42181 26.7399 4.80347C26.7399 5.18513 26.4059 5.48572 25.9818 5.48572C25.5577 5.48572 25.2238 5.18513 25.2238 4.80347C25.2238 4.42181 25.5577 4.12122 25.9818 4.12122Z" fill="#C7A385"/>
<path fill-rule="evenodd" clip-rule="evenodd" d="M26.7271 19.3186C25.956 19.3186 25.3208 19.8902 25.3208 20.5842C25.3208 21.2782 25.956 21.8499 26.7271 21.8499C27.4981 21.8499 28.1333 21.2782 28.1333 20.5842C28.1333 19.8902 27.4981 19.3186 26.7271 19.3186ZM26.7271 20.1624C26.9915 20.1624 27.1958 20.3462 27.1958 20.5842C27.1958 20.8222 26.9915 21.0061 26.7271 21.0061C26.4626 21.0061 26.2583 20.8222 26.2583 20.5842C26.2583 20.3462 26.4626 20.1624 26.7271 20.1624Z" fill="#C7A385"/>
<path fill-rule="evenodd" clip-rule="evenodd" d="M16.5253 3.31287C16.4009 3.31287 16.2817 3.35731 16.1938 3.43643C16.1059 3.51555 16.0565 3.62285 16.0565 3.73474V4.31976H15.4065C15.2822 4.31976 15.163 4.36421 15.075 4.44333C14.9871 4.52244 14.9377 4.62975 14.9377 4.74164C14.9377 4.85353 14.9871 4.96083 15.075 5.03995C15.163 5.11907 15.2822 5.16351 15.4065 5.16351H16.0565V5.74854C16.0565 5.86042 16.1059 5.96773 16.1938 6.04685C16.2817 6.12596 16.4009 6.17041 16.5253 6.17041C16.6496 6.17041 16.7688 6.12596 16.8567 6.04685C16.9446 5.96773 16.994 5.86042 16.994 5.74854V5.16351H17.644C17.7684 5.16351 17.8876 5.11907 17.9755 5.03995C18.0634 4.96083 18.1128 4.85353 18.1128 4.74164C18.1128 4.62975 18.0634 4.52244 17.9755 4.44333C17.8876 4.36421 17.7684 4.31976 17.644 4.31976H16.994V3.73474C16.994 3.62285 16.9446 3.51555 16.8567 3.43643C16.7688 3.35731 16.6496 3.31287 16.5253 3.31287Z" fill="#C7A385"/>
<path fill-rule="evenodd" clip-rule="evenodd" d="M22.2354 7.59589C22.1111 7.5959 21.9919 7.64036 21.904 7.71948C21.8161 7.7986 21.7667 7.90589 21.7667 8.01776C21.7667 8.12963 21.8161 8.23693 21.904 8.31604L22.3636 8.72968L21.904 9.14331C21.8161 9.22242 21.7667 9.32972 21.7667 9.44159C21.7667 9.55346 21.8161 9.66075 21.904 9.73987C21.9919 9.81897 22.1111 9.8634 22.2354 9.8634C22.3597 9.8634 22.4789 9.81897 22.5668 9.73987L23.0264 9.32623L23.486 9.73987C23.5739 9.81897 23.6931 9.8634 23.8174 9.8634C23.9417 9.8634 24.0609 9.81897 24.1489 9.73987C24.2367 9.66075 24.2861 9.55346 24.2861 9.44159C24.2861 9.32972 24.2367 9.22242 24.1489 9.14331L23.6893 8.72968L24.1489 8.31604C24.2367 8.23693 24.2861 8.12963 24.2861 8.01776C24.2861 7.90589 24.2367 7.7986 24.1489 7.71948C24.061 7.64036 23.9417 7.5959 23.8174 7.59589C23.6931 7.5959 23.5739 7.64036 23.486 7.71948L23.0264 8.13312L22.5668 7.71948C22.4789 7.64036 22.3597 7.5959 22.2354 7.59589Z" fill="#C7A385"/>
<path fill-rule="evenodd" clip-rule="evenodd" d="M22.6987 15.2704C22.5744 15.2704 22.4552 15.3148 22.3673 15.3939C22.2794 15.4731 22.23 15.5804 22.23 15.6923V16.2773H21.58C21.4556 16.2773 21.3364 16.3217 21.2485 16.4008C21.1606 16.48 21.1112 16.5873 21.1112 16.6992C21.1112 16.811 21.1606 16.9184 21.2485 16.9975C21.3364 17.0766 21.4556 17.121 21.58 17.121H22.23V17.7061C22.23 17.8179 22.2794 17.9252 22.3673 18.0044C22.4552 18.0835 22.5744 18.1279 22.6987 18.1279C22.8231 18.1279 22.9423 18.0835 23.0302 18.0044C23.1181 17.9252 23.1675 17.8179 23.1675 17.7061V17.121H23.8175C23.9418 17.121 24.0611 17.0766 24.149 16.9975C24.2369 16.9184 24.2863 16.811 24.2863 16.6992C24.2863 16.5873 24.2369 16.48 24.149 16.4008C24.0611 16.3217 23.9418 16.2773 23.8175 16.2773H23.1675V15.6923C23.1675 15.5804 23.1181 15.4731 23.0302 15.3939C22.9423 15.3148 22.8231 15.2704 22.6987 15.2704Z" fill="#C7A385"/>
<path fill-rule="evenodd" clip-rule="evenodd" d="M18.3389 19.0788C18.2778 19.086 18.2189 19.104 18.1656 19.1317C18.1122 19.1594 18.0654 19.1964 18.0279 19.2404C17.9904 19.2844 17.9629 19.3346 17.947 19.3882C17.9311 19.4417 17.9271 19.4976 17.9352 19.5526C17.9516 19.6635 18.0163 19.764 18.115 19.832C18.2137 19.9 18.3384 19.9299 18.4616 19.9151C18.5925 19.8996 18.7263 19.8996 18.8571 19.9151C19.0084 19.9331 19.1493 19.9722 19.2673 20.0297C19.3841 20.0866 19.4828 20.1647 19.5465 20.2505C19.6091 20.3347 19.6423 20.4354 19.6408 20.5208C19.6394 20.6035 19.6012 20.6882 19.5511 20.7375C19.5166 20.7714 19.4602 20.8079 19.3881 20.8355C19.3149 20.8636 19.2233 20.8841 19.1171 20.899C18.9042 20.9287 18.6292 20.9269 18.3078 20.9847C17.7869 21.0782 17.311 21.3243 16.9583 21.6817C16.6056 22.0392 16.3911 22.4938 16.3495 22.9704C16.3079 23.4471 16.4413 23.9257 16.7276 24.3284C17.0139 24.731 17.4415 25.0411 17.9398 25.2067C18.4381 25.3724 18.9868 25.3872 19.4953 25.2487C20.0037 25.1103 20.4506 24.8245 20.7633 24.4379C21.0759 24.0514 21.2409 23.5803 21.2311 23.1023C21.2213 22.6243 21.0375 22.159 20.7092 21.7831C20.6712 21.7395 20.624 21.7032 20.5703 21.676C20.5166 21.6489 20.4575 21.6315 20.3964 21.625C20.3353 21.6184 20.2733 21.6227 20.2141 21.6377C20.1548 21.6526 20.0994 21.678 20.051 21.7122C20.0026 21.7465 19.9622 21.789 19.932 21.8373C19.9019 21.8856 19.8826 21.9388 19.8753 21.9938C19.868 22.0488 19.8728 22.1046 19.8894 22.1579C19.906 22.2112 19.9342 22.2611 19.9722 22.3047C20.1712 22.5325 20.2877 22.8281 20.2936 23.1179C20.2995 23.4077 20.1947 23.7068 20.0052 23.9411C19.8157 24.1754 19.5316 24.3573 19.2233 24.4412C18.9151 24.5252 18.5669 24.5153 18.2648 24.4149C17.9627 24.3144 17.6904 24.1176 17.5168 23.8735C17.3432 23.6294 17.259 23.3253 17.2843 23.0364C17.3095 22.7474 17.4458 22.4588 17.6596 22.242C17.8734 22.0253 18.176 21.8695 18.4918 21.8128C18.6901 21.7771 18.9502 21.7763 19.2609 21.7328C19.4165 21.7111 19.5847 21.677 19.7553 21.6117C19.927 21.546 20.0988 21.4497 20.2432 21.3077C20.4645 21.09 20.5733 20.8129 20.5783 20.534C20.5832 20.2575 20.4865 19.9982 20.3256 19.7817C20.166 19.5667 19.9507 19.4027 19.7141 19.2873C19.4786 19.1725 19.2271 19.1082 18.9798 19.0788C18.767 19.0535 18.5517 19.0535 18.3389 19.0788Z" fill="#C7A385"/>
<path fill-rule="evenodd" clip-rule="evenodd" d="M6.10381 1.74155C5.83485 1.6778 5.55302 1.67908 5.28441 1.74403C5.0158 1.80897 4.77122 1.93504 4.57396 2.11152C4.53019 2.1506 4.4954 2.19706 4.47161 2.24826C4.44782 2.29945 4.43548 2.35437 4.4353 2.40986C4.43513 2.46535 4.44712 2.52033 4.4706 2.57164C4.49407 2.62296 4.52856 2.6696 4.57209 2.7089C4.65975 2.78822 4.77882 2.83295 4.90312 2.83326C5.02743 2.83357 5.14678 2.78943 5.23493 2.71055C5.31442 2.63943 5.41965 2.58511 5.5279 2.55894C5.63614 2.53277 5.75734 2.53242 5.86573 2.55812C5.97412 2.58381 6.07881 2.63731 6.1587 2.70808C6.23858 2.77884 6.30056 2.87298 6.33082 2.9701C6.38451 3.14245 6.34863 3.40287 6.32894 3.7397C6.3191 3.909 6.31779 4.10021 6.36738 4.30494C6.41766 4.51232 6.51979 4.72944 6.71345 4.90974C6.87596 5.06103 7.08227 5.16511 7.31038 5.21131C7.53849 5.25752 7.77449 5.24334 7.99336 5.16929C8.21222 5.09524 8.4003 4.96603 8.5381 4.79603C8.67591 4.62603 8.75453 4.42613 8.76606 4.21595C8.76915 4.1606 8.76008 4.10525 8.73938 4.05305C8.71869 4.00085 8.68676 3.95284 8.64544 3.91175C8.60412 3.87066 8.55421 3.8373 8.49856 3.81357C8.44291 3.78985 8.38262 3.77622 8.32112 3.77348C8.25962 3.7707 8.19811 3.77886 8.14011 3.79749C8.08212 3.81611 8.02876 3.84484 7.9831 3.88203C7.93745 3.91922 7.90039 3.96414 7.87403 4.01422C7.84766 4.06431 7.83253 4.11858 7.82948 4.17393C7.82714 4.21648 7.80791 4.26476 7.78004 4.29917C7.75215 4.33359 7.70715 4.36411 7.66285 4.3791C7.61856 4.39409 7.56255 4.39752 7.51637 4.38817C7.4702 4.37881 7.4211 4.3537 7.3882 4.32307C7.34737 4.28508 7.30546 4.21458 7.28382 4.12532C7.26156 4.03342 7.25682 3.91808 7.2646 3.78419C7.2803 3.51463 7.36192 3.15418 7.23347 2.74186C7.15838 2.50083 7.01422 2.28217 6.816 2.10658C6.61778 1.93099 6.37278 1.8053 6.10381 1.74155Z" fill="#C7A385"/>
</svg>
