<svg width="30" height="27" viewBox="0 0 30 27" fill="none" xmlns="http://www.w3.org/2000/svg">
<path d="M26.25 5.91333H21.5625L20.4647 3.93727C19.9884 3.08002 19.0144 2.53833 17.9494 2.53833H12.0506C10.9856 2.53833 10.0116 3.08002 9.53531 3.93727L8.4375 5.91333H3.75C2.19656 5.91333 0.9375 7.04649 0.9375 8.44458V21.1008C0.9375 22.4989 2.19656 23.6321 3.75 23.6321H26.25C27.8034 23.6321 29.0625 22.4989 29.0625 21.1008V8.44458C29.0625 7.04649 27.8034 5.91333 26.25 5.91333ZM28.125 21.1008C28.125 22.0315 27.2841 22.7883 26.25 22.7883H3.75C2.71594 22.7883 1.875 22.0315 1.875 21.1008V8.44458C1.875 7.51392 2.71594 6.75708 3.75 6.75708H9.01688L10.3734 4.31527C10.6931 3.73983 11.3363 3.38208 12.0506 3.38208H17.9494C18.6637 3.38208 19.3069 3.73983 19.6266 4.31527L20.9831 6.75708H26.25C27.2841 6.75708 28.125 7.51392 28.125 8.44458V21.1008ZM7.5 8.44458C7.5 7.97883 7.08 7.60083 6.5625 7.60083H3.75C3.2325 7.60083 2.8125 7.97883 2.8125 8.44458V10.1321C2.8125 10.5978 3.2325 10.9758 3.75 10.9758H6.5625C7.08 10.9758 7.5 10.5978 7.5 10.1321V8.44458ZM6.5625 10.1321H3.75V8.44458H6.5625V10.1321ZM15 7.60083C10.8581 7.60083 7.5 10.6231 7.5 14.3508C7.5 18.0785 10.8581 21.1008 15 21.1008C19.1419 21.1008 22.5 18.0785 22.5 14.3508C22.5 10.6231 19.1419 7.60083 15 7.60083ZM15 20.2571C11.3813 20.2571 8.4375 17.6077 8.4375 14.3508C8.4375 11.094 11.3813 8.44458 15 8.44458C18.6187 8.44458 21.5625 11.094 21.5625 14.3508C21.5625 17.6077 18.6187 20.2571 15 20.2571ZM15 9.28833C11.8931 9.28833 9.375 11.5546 9.375 14.3508C9.375 17.147 11.8931 19.4133 15 19.4133C18.1069 19.4133 20.625 17.147 20.625 14.3508C20.625 11.5546 18.1069 9.28833 15 9.28833ZM15 18.5696C12.4153 18.5696 10.3125 16.677 10.3125 14.3508C10.3125 12.0246 12.4153 10.1321 15 10.1321C17.5847 10.1321 19.6875 12.0246 19.6875 14.3508C19.6875 16.677 17.5847 18.5696 15 18.5696Z" fill="#C7A385"/>
</svg>
