<svg width="30" height="27" viewBox="0 0 30 27" fill="none" xmlns="http://www.w3.org/2000/svg">
<path d="M26.9194 22.4146C26.79 22.2129 26.5031 22.1437 26.2791 22.2602L23.8435 23.5258L19.6013 16.9125C21.0844 15.8991 21.5466 14.0387 20.5913 12.5503L19.3303 10.5843L22.935 4.96497C23.1938 4.56166 23.04 4.04529 22.5919 3.81241L17.7206 1.28116C17.2725 1.04829 16.6988 1.18666 16.44 1.58997L15 3.8335L13.56 1.58913C13.3013 1.18582 12.7275 1.04744 12.2794 1.28032L7.40814 3.81157C6.96002 4.04444 6.80627 4.56082 7.06502 4.96413L10.6697 10.5835L9.40877 12.5494C8.45346 14.0387 8.91564 15.8991 10.3988 16.9116L6.15658 23.5249L3.72096 22.2593C3.49689 22.1429 3.21002 22.2121 3.08064 22.4137C2.95127 22.6154 3.02814 22.8736 3.25221 22.99L8.93533 25.9431C9.15939 26.0596 9.44627 25.9904 9.57564 25.7887C9.70502 25.5871 9.62814 25.3289 9.40408 25.2124L6.96846 23.9468L11.2106 17.3335C12.4941 17.8195 13.9435 17.6187 14.9935 16.8652C16.0453 17.6221 17.5031 17.8203 18.7894 17.3335L23.0316 23.9468L20.596 25.2124C20.3719 25.3289 20.295 25.5871 20.4244 25.7887C20.5538 25.9904 20.8406 26.0596 21.0647 25.9431L26.7478 22.99C26.9719 22.8744 27.0488 22.6162 26.9194 22.4146ZM18.7894 9.73975L17.9578 8.4446H19.62L18.7894 9.73975ZM17.2519 2.011L22.1231 4.54225L20.1619 7.60085H17.4169L15.5419 4.6781L17.2519 2.011ZM7.87689 4.54225L12.7481 2.011L16.3341 7.60085H9.83908L7.87689 4.54225ZM11.25 16.4298C9.90658 15.7321 9.44533 14.1804 10.2206 12.9722L11.2116 11.4281L14.0963 15.9253C14.1694 16.0383 14.2585 16.1362 14.3438 16.2392C13.47 16.8365 12.2588 16.9538 11.25 16.4298ZM18.75 16.4298C17.4066 17.1276 15.6835 16.7117 14.9081 15.5034L10.38 8.4446H16.875L19.7794 12.9722C20.5547 14.1804 20.0935 15.7321 18.75 16.4298Z" fill="#C7A385"/>
</svg>
